<svg width="20" height="18" viewBox="0 0 20 18" fill="none" xmlns="http://www.w3.org/2000/svg">
<path d="M14.0909 9.845C12.9955 9.845 11.2955 10.252 10 11.0658C8.70455 10.252 7.00455 9.845 5.90909 9.845C3.94091 9.845 0 11.163 0 13.793V17.1336H20V13.793C20 11.163 16.0591 9.845 14.0909 9.845ZM10.4545 15.3115H1.36364V13.793C1.36364 13.1431 3.69091 11.6672 5.90909 11.6672C8.12727 11.6672 10.4545 13.1431 10.4545 13.793V15.3115ZM18.6364 15.3115H11.8182V13.793C11.8182 13.2403 11.6364 12.7483 11.3455 12.311C12.15 11.9466 13.1318 11.6672 14.0909 11.6672C16.3091 11.6672 18.6364 13.1431 18.6364 13.793V15.3115ZM5.90909 8.63023C7.66818 8.63023 9.09091 6.72304 9.09091 4.37853C9.09091 2.03402 7.66818 0.126831 5.90909 0.126831C4.15455 0.126831 2.72727 2.03402 2.72727 4.37853C2.72727 6.72304 4.15455 8.63023 5.90909 8.63023ZM5.90909 1.94899C6.91364 1.94899 7.72727 3.03621 7.72727 4.37853C7.72727 5.72085 6.91364 6.80807 5.90909 6.80807C4.90455 6.80807 4.09091 5.72085 4.09091 4.37853C4.09091 3.03621 4.90455 1.94899 5.90909 1.94899ZM14.0909 8.63023C15.85 8.63023 17.2727 6.72304 17.2727 4.37853C17.2727 2.03402 15.85 0.126831 14.0909 0.126831C12.3364 0.126831 10.9091 2.03402 10.9091 4.37853C10.9091 6.72304 12.3364 8.63023 14.0909 8.63023ZM14.0909 1.94899C15.0955 1.94899 15.9091 3.03621 15.9091 4.37853C15.9091 5.72085 15.0955 6.80807 14.0909 6.80807C13.0864 6.80807 12.2727 5.72085 12.2727 4.37853C12.2727 3.03621 13.0864 1.94899 14.0909 1.94899Z" fill="#72B8EB"/>
</svg>
