<svg width="161" height="38" viewBox="0 0 161 38" fill="none" xmlns="http://www.w3.org/2000/svg">
<rect width="161" height="38" rx="19" fill="#363232"/>
<path d="M37.6068 24V12.8H42.2628C43.4468 12.8 44.3748 13.0453 45.0468 13.536C45.7294 14.016 46.0708 14.7253 46.0708 15.664C46.0708 16.592 45.7454 17.296 45.0948 17.776C44.4441 18.2453 43.5908 18.48 42.5348 18.48L42.8068 18.08C44.0548 18.08 45.0041 18.3253 45.6548 18.816C46.3054 19.3067 46.6308 20.0267 46.6308 20.976C46.6308 21.936 46.2894 22.6827 45.6068 23.216C44.9348 23.7387 43.9214 24 42.5668 24H37.6068ZM38.7748 23.056H42.5668C43.5161 23.056 44.2361 22.88 44.7268 22.528C45.2174 22.176 45.4628 21.632 45.4628 20.896C45.4628 20.1707 45.2174 19.6373 44.7268 19.296C44.2361 18.9547 43.5161 18.784 42.5668 18.784H38.7748V23.056ZM38.7748 17.872H42.1988C43.0628 17.872 43.7241 17.7013 44.1828 17.36C44.6521 17.008 44.8868 16.4907 44.8868 15.808C44.8868 15.1253 44.6521 14.6133 44.1828 14.272C43.7241 13.92 43.0628 13.744 42.1988 13.744H38.7748V17.872ZM52.8391 24.08C52.0071 24.08 51.2605 23.8987 50.5991 23.536C49.9485 23.1627 49.4365 22.656 49.0631 22.016C48.6898 21.3653 48.5031 20.624 48.5031 19.792C48.5031 18.9493 48.6898 18.208 49.0631 17.568C49.4365 16.928 49.9485 16.4267 50.5991 16.064C51.2605 15.7013 52.0071 15.52 52.8391 15.52C53.5538 15.52 54.1991 15.6587 54.7751 15.936C55.3511 16.2133 55.8045 16.6293 56.1351 17.184L55.2871 17.76C54.9991 17.3333 54.6418 17.0187 54.2151 16.816C53.7885 16.6133 53.3245 16.512 52.8231 16.512C52.2258 16.512 51.6871 16.6507 51.2071 16.928C50.7271 17.1947 50.3485 17.5733 50.0711 18.064C49.7938 18.5547 49.6551 19.1307 49.6551 19.792C49.6551 20.4533 49.7938 21.0293 50.0711 21.52C50.3485 22.0107 50.7271 22.3947 51.2071 22.672C51.6871 22.9387 52.2258 23.072 52.8231 23.072C53.3245 23.072 53.7885 22.9707 54.2151 22.768C54.6418 22.5653 54.9991 22.256 55.2871 21.84L56.1351 22.416C55.8045 22.96 55.3511 23.376 54.7751 23.664C54.1991 23.9413 53.5538 24.08 52.8391 24.08ZM61.7941 24.08C60.9195 24.08 60.1515 23.8987 59.4901 23.536C58.8288 23.1627 58.3115 22.656 57.9381 22.016C57.5648 21.3653 57.3781 20.624 57.3781 19.792C57.3781 18.96 57.5541 18.224 57.9061 17.584C58.2688 16.944 58.7595 16.4427 59.3781 16.08C60.0075 15.7067 60.7115 15.52 61.4901 15.52C62.2795 15.52 62.9781 15.7013 63.5861 16.064C64.2048 16.416 64.6901 16.9173 65.0421 17.568C65.3941 18.208 65.5701 18.9493 65.5701 19.792C65.5701 19.8453 65.5648 19.904 65.5541 19.968C65.5541 20.0213 65.5541 20.08 65.5541 20.144H58.2421V19.296H64.9461L64.4981 19.632C64.4981 19.024 64.3648 18.4853 64.0981 18.016C63.8421 17.536 63.4901 17.1627 63.0421 16.896C62.5941 16.6293 62.0768 16.496 61.4901 16.496C60.9141 16.496 60.3968 16.6293 59.9381 16.896C59.4795 17.1627 59.1221 17.536 58.8661 18.016C58.6101 18.496 58.4821 19.0453 58.4821 19.664V19.84C58.4821 20.48 58.6208 21.0453 58.8981 21.536C59.1861 22.016 59.5808 22.3947 60.0821 22.672C60.5941 22.9387 61.1755 23.072 61.8261 23.072C62.3381 23.072 62.8128 22.9813 63.2501 22.8C63.6981 22.6187 64.0821 22.3413 64.4021 21.968L65.0421 22.704C64.6688 23.152 64.1995 23.4933 63.6341 23.728C63.0795 23.9627 62.4661 24.08 61.7941 24.08ZM74.5283 24.096C73.9203 24.096 73.3176 24.0107 72.7203 23.84C72.1229 23.6693 71.5949 23.408 71.1363 23.056L71.5043 22.208C71.9096 22.5067 72.3789 22.736 72.9123 22.896C73.4456 23.0453 73.9736 23.12 74.4963 23.12C75.0189 23.1093 75.4723 23.0347 75.8563 22.896C76.2403 22.7573 76.5389 22.5653 76.7523 22.32C76.9656 22.0747 77.0723 21.7973 77.0723 21.488C77.0723 21.04 76.8696 20.6933 76.4643 20.448C76.0589 20.192 75.5043 20.064 74.8003 20.064H73.3603V19.232H74.7203C75.1363 19.232 75.5043 19.1787 75.8243 19.072C76.1443 18.9653 76.3896 18.8107 76.5603 18.608C76.7416 18.4053 76.8323 18.1653 76.8323 17.888C76.8323 17.5893 76.7256 17.3333 76.5123 17.12C76.3096 16.9067 76.0269 16.7467 75.6643 16.64C75.3016 16.5333 74.8909 16.48 74.4323 16.48C74.0163 16.4907 73.5843 16.5547 73.1363 16.672C72.6883 16.7787 72.2456 16.944 71.8083 17.168L71.4883 16.288C71.9789 16.032 72.4643 15.84 72.9443 15.712C73.4349 15.5733 73.9256 15.504 74.4163 15.504C75.0883 15.4827 75.6909 15.5627 76.2243 15.744C76.7683 15.9253 77.2003 16.1867 77.5203 16.528C77.8403 16.8587 78.0003 17.2587 78.0003 17.728C78.0003 18.144 77.8723 18.5067 77.6163 18.816C77.3603 19.1253 77.0189 19.3653 76.5923 19.536C76.1656 19.7067 75.6803 19.792 75.1363 19.792L75.1843 19.488C76.1443 19.488 76.8909 19.6747 77.4243 20.048C77.9683 20.4213 78.2403 20.928 78.2403 21.568C78.2403 22.0693 78.0749 22.512 77.7443 22.896C77.4136 23.2693 76.9656 23.5627 76.4003 23.776C75.8456 23.9893 75.2216 24.096 74.5283 24.096ZM86.0351 24V22.144L85.9871 21.84V18.736C85.9871 18.0213 85.7845 17.472 85.3791 17.088C84.9845 16.704 84.3925 16.512 83.6031 16.512C83.0591 16.512 82.5418 16.6027 82.0511 16.784C81.5605 16.9653 81.1445 17.2053 80.8031 17.504L80.2911 16.656C80.7178 16.2933 81.2298 16.016 81.8271 15.824C82.4245 15.6213 83.0538 15.52 83.7151 15.52C84.8031 15.52 85.6405 15.792 86.2271 16.336C86.8245 16.8693 87.1231 17.6853 87.1231 18.784V24H86.0351ZM83.1391 24.08C82.5098 24.08 81.9605 23.9787 81.4911 23.776C81.0325 23.5627 80.6805 23.2747 80.4351 22.912C80.1898 22.5387 80.0671 22.112 80.0671 21.632C80.0671 21.1947 80.1685 20.8 80.3711 20.448C80.5845 20.0853 80.9258 19.7973 81.3951 19.584C81.8751 19.36 82.5151 19.248 83.3151 19.248H86.2111V20.096H83.3471C82.5365 20.096 81.9711 20.24 81.6511 20.528C81.3418 20.816 81.1871 21.1733 81.1871 21.6C81.1871 22.08 81.3738 22.464 81.7471 22.752C82.1205 23.04 82.6431 23.184 83.3151 23.184C83.9551 23.184 84.5045 23.04 84.9631 22.752C85.4325 22.4533 85.7738 22.0267 85.9871 21.472L86.2431 22.256C86.0298 22.8107 85.6565 23.2533 85.1231 23.584C84.6005 23.9147 83.9391 24.08 83.1391 24.08ZM95.5713 24V20.976L95.7793 21.216H92.9313C91.8539 21.216 91.0113 20.9813 90.4033 20.512C89.7953 20.0427 89.4913 19.36 89.4913 18.464C89.4913 17.504 89.8166 16.7893 90.4673 16.32C91.1179 15.84 91.9873 15.6 93.0753 15.6H96.6112V24H95.5713ZM89.4273 24L91.7313 20.768H92.9153L90.6593 24H89.4273ZM95.5713 20.64V16.256L95.7793 16.592H93.1073C92.3286 16.592 91.7206 16.7413 91.2833 17.04C90.8566 17.3387 90.6432 17.824 90.6432 18.496C90.6432 19.744 91.4379 20.368 93.0273 20.368H95.7793L95.5713 20.64ZM99.8504 24V15.6H103.562C104.512 15.6 105.258 15.7813 105.802 16.144C106.357 16.5067 106.634 17.04 106.634 17.744C106.634 18.4267 106.373 18.9547 105.85 19.328C105.328 19.6907 104.64 19.872 103.786 19.872L104.01 19.536C105.013 19.536 105.749 19.7227 106.218 20.096C106.688 20.4693 106.922 21.008 106.922 21.712C106.922 22.4373 106.656 23.0027 106.122 23.408C105.6 23.8027 104.784 24 103.674 24H99.8504ZM100.954 23.104H103.626C104.341 23.104 104.88 22.992 105.242 22.768C105.616 22.5333 105.802 22.16 105.802 21.648C105.802 21.136 105.637 20.7627 105.306 20.528C104.976 20.2933 104.453 20.176 103.738 20.176H100.954V23.104ZM100.954 19.328H103.482C104.133 19.328 104.629 19.2053 104.97 18.96C105.322 18.7147 105.498 18.3573 105.498 17.888C105.498 17.4187 105.322 17.0667 104.97 16.832C104.629 16.5973 104.133 16.48 103.482 16.48H100.954V19.328ZM115.745 24L112.289 19.84L113.233 19.28L117.089 24H115.745ZM109.585 24V15.6H110.721V24H109.585ZM110.369 20.256V19.28H113.073V20.256H110.369ZM113.329 19.92L112.273 19.76L115.617 15.6H116.849L113.329 19.92ZM118.882 24V15.6H120.018V22.272L125.634 15.6H126.642V24H125.506V17.312L119.906 24H118.882Z" fill="white"/>
<path d="M37.6068 24V12.8H42.2628C43.4468 12.8 44.3748 13.0453 45.0468 13.536C45.7294 14.016 46.0708 14.7253 46.0708 15.664C46.0708 16.592 45.7454 17.296 45.0948 17.776C44.4441 18.2453 43.5908 18.48 42.5348 18.48L42.8068 18.08C44.0548 18.08 45.0041 18.3253 45.6548 18.816C46.3054 19.3067 46.6308 20.0267 46.6308 20.976C46.6308 21.936 46.2894 22.6827 45.6068 23.216C44.9348 23.7387 43.9214 24 42.5668 24H37.6068ZM38.7748 23.056H42.5668C43.5161 23.056 44.2361 22.88 44.7268 22.528C45.2174 22.176 45.4628 21.632 45.4628 20.896C45.4628 20.1707 45.2174 19.6373 44.7268 19.296C44.2361 18.9547 43.5161 18.784 42.5668 18.784H38.7748V23.056ZM38.7748 17.872H42.1988C43.0628 17.872 43.7241 17.7013 44.1828 17.36C44.6521 17.008 44.8868 16.4907 44.8868 15.808C44.8868 15.1253 44.6521 14.6133 44.1828 14.272C43.7241 13.92 43.0628 13.744 42.1988 13.744H38.7748V17.872ZM52.8391 24.08C52.0071 24.08 51.2605 23.8987 50.5991 23.536C49.9485 23.1627 49.4365 22.656 49.0631 22.016C48.6898 21.3653 48.5031 20.624 48.5031 19.792C48.5031 18.9493 48.6898 18.208 49.0631 17.568C49.4365 16.928 49.9485 16.4267 50.5991 16.064C51.2605 15.7013 52.0071 15.52 52.8391 15.52C53.5538 15.52 54.1991 15.6587 54.7751 15.936C55.3511 16.2133 55.8045 16.6293 56.1351 17.184L55.2871 17.76C54.9991 17.3333 54.6418 17.0187 54.2151 16.816C53.7885 16.6133 53.3245 16.512 52.8231 16.512C52.2258 16.512 51.6871 16.6507 51.2071 16.928C50.7271 17.1947 50.3485 17.5733 50.0711 18.064C49.7938 18.5547 49.6551 19.1307 49.6551 19.792C49.6551 20.4533 49.7938 21.0293 50.0711 21.52C50.3485 22.0107 50.7271 22.3947 51.2071 22.672C51.6871 22.9387 52.2258 23.072 52.8231 23.072C53.3245 23.072 53.7885 22.9707 54.2151 22.768C54.6418 22.5653 54.9991 22.256 55.2871 21.84L56.1351 22.416C55.8045 22.96 55.3511 23.376 54.7751 23.664C54.1991 23.9413 53.5538 24.08 52.8391 24.08ZM61.7941 24.08C60.9195 24.08 60.1515 23.8987 59.4901 23.536C58.8288 23.1627 58.3115 22.656 57.9381 22.016C57.5648 21.3653 57.3781 20.624 57.3781 19.792C57.3781 18.96 57.5541 18.224 57.9061 17.584C58.2688 16.944 58.7595 16.4427 59.3781 16.08C60.0075 15.7067 60.7115 15.52 61.4901 15.52C62.2795 15.52 62.9781 15.7013 63.5861 16.064C64.2048 16.416 64.6901 16.9173 65.0421 17.568C65.3941 18.208 65.5701 18.9493 65.5701 19.792C65.5701 19.8453 65.5648 19.904 65.5541 19.968C65.5541 20.0213 65.5541 20.08 65.5541 20.144H58.2421V19.296H64.9461L64.4981 19.632C64.4981 19.024 64.3648 18.4853 64.0981 18.016C63.8421 17.536 63.4901 17.1627 63.0421 16.896C62.5941 16.6293 62.0768 16.496 61.4901 16.496C60.9141 16.496 60.3968 16.6293 59.9381 16.896C59.4795 17.1627 59.1221 17.536 58.8661 18.016C58.6101 18.496 58.4821 19.0453 58.4821 19.664V19.84C58.4821 20.48 58.6208 21.0453 58.8981 21.536C59.1861 22.016 59.5808 22.3947 60.0821 22.672C60.5941 22.9387 61.1755 23.072 61.8261 23.072C62.3381 23.072 62.8128 22.9813 63.2501 22.8C63.6981 22.6187 64.0821 22.3413 64.4021 21.968L65.0421 22.704C64.6688 23.152 64.1995 23.4933 63.6341 23.728C63.0795 23.9627 62.4661 24.08 61.7941 24.08ZM74.5283 24.096C73.9203 24.096 73.3176 24.0107 72.7203 23.84C72.1229 23.6693 71.5949 23.408 71.1363 23.056L71.5043 22.208C71.9096 22.5067 72.3789 22.736 72.9123 22.896C73.4456 23.0453 73.9736 23.12 74.4963 23.12C75.0189 23.1093 75.4723 23.0347 75.8563 22.896C76.2403 22.7573 76.5389 22.5653 76.7523 22.32C76.9656 22.0747 77.0723 21.7973 77.0723 21.488C77.0723 21.04 76.8696 20.6933 76.4643 20.448C76.0589 20.192 75.5043 20.064 74.8003 20.064H73.3603V19.232H74.7203C75.1363 19.232 75.5043 19.1787 75.8243 19.072C76.1443 18.9653 76.3896 18.8107 76.5603 18.608C76.7416 18.4053 76.8323 18.1653 76.8323 17.888C76.8323 17.5893 76.7256 17.3333 76.5123 17.12C76.3096 16.9067 76.0269 16.7467 75.6643 16.64C75.3016 16.5333 74.8909 16.48 74.4323 16.48C74.0163 16.4907 73.5843 16.5547 73.1363 16.672C72.6883 16.7787 72.2456 16.944 71.8083 17.168L71.4883 16.288C71.9789 16.032 72.4643 15.84 72.9443 15.712C73.4349 15.5733 73.9256 15.504 74.4163 15.504C75.0883 15.4827 75.6909 15.5627 76.2243 15.744C76.7683 15.9253 77.2003 16.1867 77.5203 16.528C77.8403 16.8587 78.0003 17.2587 78.0003 17.728C78.0003 18.144 77.8723 18.5067 77.6163 18.816C77.3603 19.1253 77.0189 19.3653 76.5923 19.536C76.1656 19.7067 75.6803 19.792 75.1363 19.792L75.1843 19.488C76.1443 19.488 76.8909 19.6747 77.4243 20.048C77.9683 20.4213 78.2403 20.928 78.2403 21.568C78.2403 22.0693 78.0749 22.512 77.7443 22.896C77.4136 23.2693 76.9656 23.5627 76.4003 23.776C75.8456 23.9893 75.2216 24.096 74.5283 24.096ZM86.0351 24V22.144L85.9871 21.84V18.736C85.9871 18.0213 85.7845 17.472 85.3791 17.088C84.9845 16.704 84.3925 16.512 83.6031 16.512C83.0591 16.512 82.5418 16.6027 82.0511 16.784C81.5605 16.9653 81.1445 17.2053 80.8031 17.504L80.2911 16.656C80.7178 16.2933 81.2298 16.016 81.8271 15.824C82.4245 15.6213 83.0538 15.52 83.7151 15.52C84.8031 15.52 85.6405 15.792 86.2271 16.336C86.8245 16.8693 87.1231 17.6853 87.1231 18.784V24H86.0351ZM83.1391 24.08C82.5098 24.08 81.9605 23.9787 81.4911 23.776C81.0325 23.5627 80.6805 23.2747 80.4351 22.912C80.1898 22.5387 80.0671 22.112 80.0671 21.632C80.0671 21.1947 80.1685 20.8 80.3711 20.448C80.5845 20.0853 80.9258 19.7973 81.3951 19.584C81.8751 19.36 82.5151 19.248 83.3151 19.248H86.2111V20.096H83.3471C82.5365 20.096 81.9711 20.24 81.6511 20.528C81.3418 20.816 81.1871 21.1733 81.1871 21.6C81.1871 22.08 81.3738 22.464 81.7471 22.752C82.1205 23.04 82.6431 23.184 83.3151 23.184C83.9551 23.184 84.5045 23.04 84.9631 22.752C85.4325 22.4533 85.7738 22.0267 85.9871 21.472L86.2431 22.256C86.0298 22.8107 85.6565 23.2533 85.1231 23.584C84.6005 23.9147 83.9391 24.08 83.1391 24.08ZM95.5713 24V20.976L95.7793 21.216H92.9313C91.8539 21.216 91.0113 20.9813 90.4033 20.512C89.7953 20.0427 89.4913 19.36 89.4913 18.464C89.4913 17.504 89.8166 16.7893 90.4673 16.32C91.1179 15.84 91.9873 15.6 93.0753 15.6H96.6112V24H95.5713ZM89.4273 24L91.7313 20.768H92.9153L90.6593 24H89.4273ZM95.5713 20.64V16.256L95.7793 16.592H93.1073C92.3286 16.592 91.7206 16.7413 91.2833 17.04C90.8566 17.3387 90.6432 17.824 90.6432 18.496C90.6432 19.744 91.4379 20.368 93.0273 20.368H95.7793L95.5713 20.64ZM99.8504 24V15.6H103.562C104.512 15.6 105.258 15.7813 105.802 16.144C106.357 16.5067 106.634 17.04 106.634 17.744C106.634 18.4267 106.373 18.9547 105.85 19.328C105.328 19.6907 104.64 19.872 103.786 19.872L104.01 19.536C105.013 19.536 105.749 19.7227 106.218 20.096C106.688 20.4693 106.922 21.008 106.922 21.712C106.922 22.4373 106.656 23.0027 106.122 23.408C105.6 23.8027 104.784 24 103.674 24H99.8504ZM100.954 23.104H103.626C104.341 23.104 104.88 22.992 105.242 22.768C105.616 22.5333 105.802 22.16 105.802 21.648C105.802 21.136 105.637 20.7627 105.306 20.528C104.976 20.2933 104.453 20.176 103.738 20.176H100.954V23.104ZM100.954 19.328H103.482C104.133 19.328 104.629 19.2053 104.97 18.96C105.322 18.7147 105.498 18.3573 105.498 17.888C105.498 17.4187 105.322 17.0667 104.97 16.832C104.629 16.5973 104.133 16.48 103.482 16.48H100.954V19.328ZM115.745 24L112.289 19.84L113.233 19.28L117.089 24H115.745ZM109.585 24V15.6H110.721V24H109.585ZM110.369 20.256V19.28H113.073V20.256H110.369ZM113.329 19.92L112.273 19.76L115.617 15.6H116.849L113.329 19.92ZM118.882 24V15.6H120.018V22.272L125.634 15.6H126.642V24H125.506V17.312L119.906 24H118.882Z" fill="white"/>
</svg>
