<svg width="22" height="18" viewBox="0 0 22 18" fill="none" xmlns="http://www.w3.org/2000/svg">
<path fill-rule="evenodd" clip-rule="evenodd" d="M22 13.2228V3.94636C22 1.81278 20.24 0.0811768 18.0714 0.0811768H3.92857C1.76 0.0811768 0 1.81278 0 3.94636V13.2228C0 15.3564 1.76 17.088 3.92857 17.088H18.0714C20.24 17.088 22 15.3564 22 13.2228ZM20.4286 4.75808V13.2228C20.4286 14.506 19.3757 15.5419 18.0714 15.5419H3.92857C2.62429 15.5419 1.57143 14.506 1.57143 13.2228V4.75808L8.7921 9.58956C10.1278 10.4786 11.8722 10.4786 13.2079 9.58956L20.4286 4.75808ZM20.2321 3.01875C19.8707 2.19933 19.0379 1.62725 18.0714 1.62725H3.92857C2.96214 1.62725 2.12929 2.19933 1.76786 3.01875L9.67219 8.3063C10.4736 8.84742 11.5264 8.84742 12.3278 8.3063L20.2321 3.01875Z" fill="#72B8EB"/>
</svg>
