<svg width="20" height="19" viewBox="0 0 20 19" fill="none" xmlns="http://www.w3.org/2000/svg">
<path fill-rule="evenodd" clip-rule="evenodd" d="M15.5786 0.529737L7.64282 5.22454H2.65712C2.26426 5.22454 1.87151 5.30378 1.51437 5.45647C0.592941 5.8527 0 6.69543 0 7.61996V10.5604C0 11.4869 0.592941 12.3244 1.51437 12.7239C1.74294 12.8205 1.9858 12.8914 2.22866 12.9236L2.77134 16.4413C2.92134 17.4013 3.82864 18.11 4.89293 18.11H5.71429C6.9 18.11 7.85714 17.2467 7.85714 16.1772V13.0847L15.5786 17.6525C17.4786 18.7736 20 17.543 20 15.4942V2.68418C20 0.634106 17.4786 -0.595162 15.5786 0.529737ZM18.5714 2.68418C18.5714 1.65914 17.3071 1.04451 16.3571 1.60696L8.25718 6.40164C8.1429 6.47187 8.00714 6.51308 7.85714 6.51308H2.65712C2.47141 6.51308 2.29284 6.54982 2.12856 6.62004C1.69999 6.80366 1.42857 7.1928 1.42857 7.61996V10.5604C1.42857 10.9908 1.69999 11.3774 2.12856 11.5577C2.29284 11.6286 2.47141 11.6673 2.65712 11.6673H7.85714C8.00714 11.6673 8.1429 11.7059 8.25718 11.7768L16.3571 16.5766C17.3071 17.1371 18.5714 16.5186 18.5714 15.4942V2.68418ZM6.42857 12.9558H3.6785L4.18579 16.2674C4.23579 16.5831 4.53578 16.8214 4.89293 16.8214H5.71429C6.10714 16.8214 6.42857 16.5315 6.42857 16.1772V12.9558Z" fill="#72B8EB"/>
</svg>
