<svg width="24" height="31" viewBox="0 0 24 31" fill="none" xmlns="http://www.w3.org/2000/svg">
<path fill-rule="evenodd" clip-rule="evenodd" d="M11.4973 0.221596C9.9328 0.221596 8.71594 1.54978 8.71594 3.20104V3.70359C5.23919 4.94204 2.80546 8.24455 2.80546 12.1394V14.3829V17.5059L0.545578 20.8264C-0.149772 21.7238 -0.149772 22.9264 0.371741 23.9315C0.893253 24.9186 1.76244 25.5468 2.80546 25.5468H7.1514C7.1514 28.0237 9.23745 30.016 11.4973 30.016C13.9311 30.016 15.8433 28.0237 15.8433 25.5468H20.1892C21.2322 25.5468 22.2753 24.9186 22.7968 23.9315C23.3183 22.9264 23.1444 21.7238 22.4491 20.8264L20.1892 17.5059V14.3829V12.1394C20.1892 8.24455 17.7555 4.94204 14.4526 3.70359V3.20104C14.4526 1.54978 13.0619 0.221596 11.4973 0.221596ZM13.0624 22.5674H10.1072H6.45658H2.80599L5.06588 19.5879L5.23972 19.2649C5.58739 18.7444 5.76123 18.1341 5.76123 17.5059V14.3829V12.1393C5.76123 8.85478 8.36879 6.18046 11.4979 6.18046C14.8008 6.18046 17.2345 8.85478 17.2345 12.1393V14.3829V17.5059C17.2345 18.1341 17.5822 18.7444 17.9298 19.2649L18.1037 19.5879L20.1897 22.5674H16.713H13.0624ZM11.4964 27.0368C10.8011 27.0368 10.1057 26.3726 10.1057 25.5468H13.0609C13.0609 26.3726 12.3656 27.0368 11.4964 27.0368Z" fill="#D9D9D9"/>
</svg>
