<svg width="23" height="34" viewBox="0 0 23 34" fill="none" xmlns="http://www.w3.org/2000/svg">
<path d="M7.1875 7.86309C7.1875 5.25842 9.11827 3.14692 11.5 3.14692C13.8817 3.14692 15.8125 5.25842 15.8125 7.86309C15.8125 10.4678 13.8817 12.5793 11.5 12.5793C9.11827 12.5793 7.1875 10.4678 7.1875 7.86309ZM11.5 0.00280762C7.53045 0.00280762 4.3125 3.52198 4.3125 7.86309C4.3125 12.2042 7.53045 15.7234 11.5 15.7234C15.4695 15.7234 18.6875 12.2042 18.6875 7.86309C18.6875 3.52198 15.4695 0.00280762 11.5 0.00280762ZM7.1875 18.8675C3.21795 18.8675 0 22.3867 0 26.7278V31.444C0 32.3122 0.643591 33.016 1.4375 33.016C2.23141 33.016 2.875 32.3122 2.875 31.444V26.7278C2.875 24.1231 4.80577 22.0116 7.1875 22.0116H15.8125C18.1942 22.0116 20.125 24.1231 20.125 26.7278V31.444C20.125 32.3122 20.7686 33.016 21.5625 33.016C22.3564 33.016 23 32.3122 23 31.444V26.7278C23 22.3867 19.782 18.8675 15.8125 18.8675H7.1875Z" fill="#D6D6D6"/>
</svg>
