<svg width="23" height="23" viewBox="0 0 23 23" fill="none" xmlns="http://www.w3.org/2000/svg">
<path fill-rule="evenodd" clip-rule="evenodd" d="M14.2024 1.85537C13.1851 -0.421679 9.81489 -0.421679 8.79759 1.85537L8.62448 2.2401C8.34719 2.8604 7.60225 3.1509 6.94757 2.89964L6.54068 2.7505C4.14017 1.82397 1.75691 4.1088 2.71842 6.40155L2.88166 6.79414C3.14419 7.4223 2.83573 8.13686 2.18679 8.40382L1.78315 8.56868C-0.594382 9.54231 -0.594382 12.7617 1.78315 13.7353L2.18679 13.9001C2.83573 14.1671 3.14419 14.8817 2.88166 15.5098L2.71842 15.9024C1.75691 18.1952 4.14017 20.48 6.54068 19.5535L6.94757 19.4043C7.60225 19.1531 8.34719 19.4436 8.62448 20.0639L8.79759 20.4486C9.81489 22.7256 13.1851 22.7256 14.2024 20.4486L14.3755 20.0639C14.6528 19.4436 15.3977 19.1531 16.0524 19.4043L16.4593 19.5535C18.8598 20.48 21.2431 18.1952 20.2816 15.9024L20.1183 15.5098C19.8558 14.8817 20.1643 14.1671 20.8132 13.9001L21.2169 13.7353C23.5944 12.7617 23.5944 9.54231 21.2169 8.56868L20.8132 8.40382C20.1643 8.13686 19.8558 7.4223 20.1183 6.79414L20.2816 6.40155C21.2431 4.1088 18.8598 1.82397 16.4593 2.7505L16.0524 2.89964C15.3977 3.1509 14.6528 2.8604 14.3755 2.2401L14.2024 1.85537ZM10.3063 2.46774C10.7551 1.4627 12.2449 1.4627 12.6937 2.46774L12.8668 2.85258C13.4952 4.25806 15.1804 4.93327 16.6628 4.36008L17.0697 4.20308C18.1305 3.79478 19.1831 4.80762 18.7589 5.82052L18.5957 6.21311C18.0017 7.62645 18.6999 9.24394 20.1676 9.84068L20.5712 10.0056C21.6213 10.4375 21.6213 11.8665 20.5712 12.2983L20.1676 12.4633C18.6999 13.06 18.0017 14.6775 18.5957 16.0909L18.7589 16.4834C19.1831 17.4963 18.1305 18.5092 17.0697 18.1009L16.6628 17.9439C15.1804 17.3707 13.4952 18.0459 12.8668 19.4514L12.6937 19.8362C12.2449 20.8413 10.7551 20.8413 10.3063 19.8362L10.1332 19.4514C9.50477 18.0459 7.81965 17.3707 6.33718 17.9439L5.93028 18.1009C4.8695 18.5092 3.8169 17.4963 4.24105 16.4834L4.40434 16.0909C4.99831 14.6775 4.30014 13.06 2.83244 12.4633L2.42879 12.2983C1.37868 11.8665 1.37868 10.4375 2.42879 10.0056L2.83244 9.84068C4.30014 9.24394 4.99831 7.62645 4.40434 6.21311L4.24105 5.82052C3.8169 4.80762 4.8695 3.79478 5.93028 4.20308L6.33718 4.36008C7.81965 4.93327 9.50477 4.25806 10.1332 2.85258L10.3063 2.46774Z" fill="#72B8EB"/>
</svg>
